<?xml version="1.0" standalone="no"?>
<!DOCTYPE svg PUBLIC "-//W3C//DTD SVG 20010904//EN"
 "http://www.w3.org/TR/2001/REC-SVG-20010904/DTD/svg10.dtd">
<svg version="1.0" xmlns="http://www.w3.org/2000/svg"
 width="260.000000pt" height="260.000000pt" viewBox="0 0 260.000000 260.000000"
 preserveAspectRatio="xMidYMid meet">
<metadata>
Created by potrace 1.11, written by Peter Selinger 2001-2013
</metadata>
<g transform="translate(0.000000,260.000000) scale(0.100000,-0.100000)"
fill="#000000" stroke="none">
<path d="M116 2205 c-22 -8 -57 -31 -79 -53 l-39 -39 194 -125 c106 -69 258
-168 338 -220 80 -52 179 -116 220 -143 41 -26 131 -85 200 -130 69 -45 162
-105 208 -134 45 -29 82 -57 82 -61 0 -5 -64 -49 -142 -100 -79 -50 -235 -152
-348 -225 -113 -74 -259 -169 -325 -211 -66 -43 -189 -123 -273 -178 l-154
-100 45 -42 c78 -74 189 -84 290 -25 28 17 201 128 382 247 182 118 411 268
510 332 99 64 201 134 228 155 l48 38 187 -122 c103 -67 194 -126 203 -132 10
-6 22 -34 27 -63 16 -78 50 -141 106 -198 62 -63 125 -101 202 -121 168 -43
308 14 359 148 61 159 -79 374 -286 438 -78 24 -151 24 -231 -1 -93 -29 -154
-26 -224 11 -68 35 -214 138 -214 150 0 13 147 115 214 149 71 36 132 39 224
10 80 -25 153 -25 231 -1 115 36 212 117 268 223 23 45 28 65 28 133 0 62 -4
87 -19 110 -77 119 -196 160 -350 120 -120 -31 -219 -111 -270 -218 -19 -40
-37 -89 -39 -110 -3 -21 -7 -40 -8 -42 -5 -4 -313 -205 -366 -238 l-42 -27
-33 28 c-34 29 -133 95 -613 405 -91 59 -263 171 -465 302 -41 27 -91 55 -110
62 -46 16 -116 15 -164 -2z m2315 -237 c62 -35 92 -88 93 -161 1 -76 -27 -138
-88 -200 -136 -135 -357 -134 -429 4 -27 50 -19 160 15 214 48 77 139 143 225
165 54 13 140 3 184 -22z m-131 -890 c59 -18 136 -76 173 -131 85 -125 69
-250 -40 -314 -64 -37 -165 -37 -245 -1 -122 56 -198 160 -198 273 0 148 137
225 310 173z"/>
</g>
</svg>
